<svg width="980" height="981" viewBox="0 0 980 981" fill="none" xmlns="http://www.w3.org/2000/svg">
<rect width="980" height="981" fill="#E5E5E5"/>
<g id="Vector">
<path d="M655.877 302.315L713.373 317.721L696.813 379.525L639.316 364.119L655.877 302.315ZM859.382 73.7144C847.934 56.4752 821.795 42.372 780.932 31.4228C734.728 19.0425 701.962 17.1218 682.63 25.6732C663.304 34.1997 648.676 56.969 638.758 93.9845L635.133 106.465L692.12 121.734L695.37 108.607C700.121 90.8771 707.073 80.0225 716.184 76.0986C725.296 72.1747 741.161 73.2233 763.796 79.2884C787.901 85.7471 802.678 92.7493 808.106 100.182C813.562 107.662 813.667 121.115 808.462 140.538C802.18 163.982 788.735 177.06 768.093 179.789L743.164 183.331C717.127 186.777 700.134 192.325 692.151 199.954C684.206 207.594 676.392 225.65 668.762 254.124L727.031 269.737L729.186 261.694C733.89 244.139 749.925 233.45 777.328 229.69C805.475 225.742 824.775 219.104 835.165 209.811C845.565 200.481 854.555 181.672 862.138 153.372C871.743 117.474 870.82 90.9378 859.382 73.7144Z" fill="black"/>
<path d="M263.028 2.14872C213.578 7.94872 163.368 28.3887 120.478 59.6687C101.048 73.7987 66.4884 109.629 52.8584 129.809C-8.69156 220.389 -17.0216 334.429 30.6684 432.069C81.8784 536.519 183.558 600.359 299.618 600.359C366.978 600.359 425.768 581.439 477.738 542.829L495.648 529.709L628.608 662.669L615.498 676.549C592.538 700.769 582.698 687.399 736.598 841.299C810.518 915.219 874.098 976.789 877.888 978.549C883.188 980.819 886.718 980.819 892.018 978.549C902.368 974.259 977.548 897.809 979.568 889.739C980.578 885.449 979.818 880.149 977.298 875.859C975.278 871.819 913.718 808.749 840.298 735.329C689.668 585.219 700.268 593.289 679.828 612.209L668.978 622.299L602.878 556.199C566.548 519.869 536.778 489.089 536.778 488.079C536.778 487.069 541.068 480.259 546.618 472.939C601.368 399.019 615.998 289.259 583.448 198.689C536.018 66.9888 403.058 -14.5013 263.028 2.14872ZM357.648 71.5287C442.168 93.9787 507.008 158.829 529.468 242.839C537.288 272.359 537.538 325.089 529.718 356.119C522.908 383.119 508.018 415.659 492.888 436.599C480.018 454.769 449.998 484.289 432.588 496.139C413.418 509.009 380.618 523.639 356.138 529.699C325.108 537.519 272.378 537.269 242.858 529.449C158.838 506.999 93.4984 441.649 71.5484 357.629C64.4884 330.889 63.4784 282.699 69.5284 254.189C88.7084 161.849 159.848 89.6887 251.688 69.7587C278.678 63.7087 332.418 64.7187 357.648 71.5287Z" fill="black"/>
<path d="M151.768 156.309C132.848 176.239 122.248 191.629 111.648 214.589C75.5684 293.309 92.7285 386.149 154.538 447.209C184.818 477.229 207.778 489.089 212.318 477.229C214.588 471.169 211.308 466.379 197.938 458.309C179.018 446.699 150.758 417.189 138.648 396.749C133.098 386.909 125.278 370.009 121.238 358.899C114.928 340.229 114.428 335.689 114.428 300.869C114.428 266.299 114.928 261.259 121.238 242.839C130.318 215.589 143.698 193.639 164.128 171.939C181.288 153.769 183.558 149.229 178.008 143.679C172.208 137.889 166.648 140.659 151.768 156.309Z" fill="black"/>
</g>
</svg>
